<svg aria-hidden="true" style="width:0;height:0;position:absolute;overflow:hidden" xmlns="http://www.w3.org/2000/svg"><defs><symbol id="icon-mail" viewBox="0 0 32 32"><path d="M4 4a4 4 0 0 0-4 4v16.02A4 4 0 0 0 4 28h11a1 1 0 0 0 0-2H4a2 2 0 0 1-1.928-1.468l-.003-.014 11.28-6.942 2.652 1.59 14-8.4V17a1 1 0 0 0 2 0V8a4 4 0 0 0-4-4h-24zm7.416 12.416L2 22.21V10.766l9.416 5.65zM2 8.434V8a2 2 0 0 1 2-2h24a2 2 0 0 1 2 2v.434l-14 8.4-14-8.4z"/><path d="M28.494 28.538c2.02 0 3.174-1.714 3.174-4.05v-.42C31.668 20.86 29.28 18 25.04 18h-.07C20.84 18 18 20.72 18 24.864v.428C18 29.64 20.876 32 24.716 32h.088c1.188 0 2.036-.148 2.474-.35v-1.46c-.49.22-1.346.36-2.36.36h-.088c-2.668 0-5.142-1.576-5.142-5.31v-.314c0-3.314 2.116-5.448 5.28-5.448h.08c3.07 0 4.968 2.1 4.968 4.652v.236c0 1.95-.648 2.78-1.278 2.78-.464 0-.82-.296-.82-.84v-4.38h-1.812v1.138h-.06c-.168-.596-.736-1.26-1.908-1.26-1.556 0-2.518 1.11-2.518 2.8v1.056c0 1.784.98 2.868 2.52 2.868.942 0 1.792-.454 2.028-1.286h.086c.236.84 1.234 1.296 2.24 1.296zm-4.906-3.176v-.454c0-1.092.454-1.582 1.146-1.582.594 0 1.144.384 1.144 1.416v.734c0 1.146-.506 1.488-1.128 1.488-.708 0-1.162-.43-1.162-1.6z"/></symbol><symbol id="icon-github" viewBox="0 0 32 32"><path d="M16 0C7.16 0 0 7.16 0 16c0 7.08 4.58 13.06 10.94 15.18.8.14 1.1-.34 1.1-.76 0-.38-.02-1.64-.02-2.98-4.02.74-5.06-.98-5.38-1.88-.18-.46-.96-1.88-1.64-2.26-.56-.3-1.36-1.04-.02-1.06 1.26-.02 2.16 1.16 2.46 1.64 1.44 2.42 3.74 1.74 4.66 1.32.14-1.04.56-1.74 1.02-2.14-3.56-.4-7.28-1.78-7.28-7.9 0-1.74.62-3.18 1.64-4.3-.16-.4-.72-2.04.16-4.24 0 0 1.34-.42 4.4 1.64 1.28-.36 2.64-.54 4-.54s2.72.18 4 .54c3.06-2.08 4.4-1.64 4.4-1.64.88 2.2.32 3.84.16 4.24 1.02 1.12 1.64 2.54 1.64 4.3 0 6.14-3.74 7.5-7.3 7.9.58.5 1.08 1.46 1.08 2.96 0 2.14-.02 3.86-.02 4.4 0 .42.3.92 1.1.76C27.49 28.977 31.999 23.015 32 16c0-8.84-7.16-16-16-16z"/></symbol><symbol id="icon-linkedin" viewBox="0 0 32 32"><path d="M0 2.292C0 1.026 1.052 0 2.35 0h27.3C30.948 0 32 1.026 32 2.292v27.416C32 30.974 30.948 32 29.65 32H2.35C1.052 32 0 30.974 0 29.708V2.292zm9.886 24.496v-14.45H5.084v14.45h4.802zm-2.4-16.424c1.674 0 2.716-1.108 2.716-2.496-.03-1.418-1.04-2.496-2.684-2.496S4.8 6.452 4.8 7.868c0 1.388 1.042 2.496 2.654 2.496h.032zm9.816 16.424v-8.07c0-.432.032-.864.16-1.172.346-.862 1.136-1.756 2.464-1.756 1.738 0 2.432 1.324 2.432 3.268v7.73h4.802V18.5c0-4.44-2.368-6.504-5.528-6.504-2.548 0-3.69 1.4-4.33 2.386v.05h-.032l.058-.093-.026.043v-2.044h-4.8c.06 1.356 0 14.45 0 14.45h4.8z"/></symbol><symbol id="icon-telegram" viewBox="0 0 32 32"><path d="M32 16c0 8.837-7.163 16-16 16S0 24.837 0 16 7.163 0 16 0s16 7.163 16 16zm-15.426-4.188c-1.556.648-4.668 1.988-9.332 4.02-.756.3-1.154.596-1.19.884-.06.486.55.678 1.38.94l.35.11c.816.266 1.916.576 2.486.588.52.012 1.098-.2 1.736-.64 4.358-2.942 6.608-4.428 6.748-4.46.1-.024.24-.052.332.032.094.082.084.24.074.282-.06.258-2.454 2.482-3.692 3.634-.386.36-.66.614-.716.672-.123.126-.246.247-.37.367l-.006.005c-.76.732-1.328 1.28.03 2.176.654.432 1.178.786 1.7 1.142.568.388 1.136.774 1.872 1.258.186.12.366.25.54.374.662.472 1.26.896 1.994.828.428-.04.87-.44 1.094-1.64.53-2.834 1.572-8.972 1.812-11.502a2.979 2.979 0 0 0-.028-.646l.002.016a.674.674 0 0 0-.227-.433l-.001-.001a1.04 1.04 0 0 0-.598-.186h-.024.001c-.6.01-1.526.332-5.968 2.18z"/></symbol><symbol id="icon-phone" viewBox="0 0 32 32"><path d="M26.68 20.507a15.26 15.26 0 0 1-4.707-.747 1.303 1.303 0 0 0-1.347.32l-2.093 2.627c-3.773-1.8-7.307-5.2-9.187-9.107l2.6-2.213a1.36 1.36 0 0 0 .32-1.36 14.882 14.882 0 0 1-.747-4.707c0-.72-.6-1.32-1.32-1.32H5.586c-.72 0-1.587.32-1.587 1.32C3.999 17.707 14.306 28 26.679 28c.947 0 1.32-.84 1.32-1.573v-4.6c0-.72-.6-1.32-1.32-1.32z"/></symbol><symbol id="icon-house" viewBox="0 0 32 32"><path d="M17.414 3c-.362-.362-.862-.586-1.414-.586s-1.052.224-1.414.586L1.292 16.292a1 1 0 1 0 1.416 1.416L4 16.414V27a3 3 0 0 0 3 3h18a3 3 0 0 0 3-3V16.414l1.292 1.294a1 1 0 1 0 1.416-1.416L26 11.586V5a1 1 0 0 0-1-1h-2a1 1 0 0 0-1 1v2.586L17.414 3zM26 14.414V27a1 1 0 0 1-1 1H7a1 1 0 0 1-1-1V14.414l10-10 10 10z"/></symbol></defs></svg>