<svg aria-hidden="true" style="position: absolute; width: 0; height: 0; overflow: hidden;" version="1.1" xmlns="http://www.w3.org/2000/svg" xmlns:xlink="http://www.w3.org/1999/xlink">
<defs><symbol id="icon-mail" viewBox="0 0 32 32">
<path d="M4 4c-2.209 0-4 1.791-4 4v0 16.020c0.011 2.201 1.798 3.98 4 3.98 0 0 0 0 0 0h11c0.552 0 1-0.448 1-1s-0.448-1-1-1v0h-11c-0 0-0 0-0 0-0.92 0-1.696-0.622-1.928-1.468l-0.003-0.014 11.28-6.942 2.652 1.59 14-8.4v6.234c0 0.552 0.448 1 1 1s1-0.448 1-1v0-9c0-2.209-1.791-4-4-4v0h-24zM11.416 16.416l-9.416 5.794v-11.444l9.416 5.65zM2 8.434v-0.434c0-1.105 0.895-2 2-2v0h24c1.105 0 2 0.895 2 2v0 0.434l-14 8.4-14-8.4z"></path>
<path d="M28.494 28.538c2.020 0 3.174-1.714 3.174-4.050v-0.42c0-3.208-2.388-6.068-6.628-6.068h-0.070c-4.13 0-6.97 2.72-6.97 6.864v0.428c0 4.348 2.876 6.708 6.716 6.708h0.088c1.188 0 2.036-0.148 2.474-0.35v-1.46c-0.49 0.22-1.346 0.36-2.36 0.36h-0.088c-2.668 0-5.142-1.576-5.142-5.31v-0.314c0-3.314 2.116-5.448 5.28-5.448h0.080c3.070 0 4.968 2.1 4.968 4.652v0.236c0 1.95-0.648 2.78-1.278 2.78-0.464 0-0.82-0.296-0.82-0.84v-4.38h-1.812v1.138h-0.060c-0.168-0.596-0.736-1.26-1.908-1.26-1.556 0-2.518 1.11-2.518 2.8v1.056c0 1.784 0.98 2.868 2.52 2.868 0.942 0 1.792-0.454 2.028-1.286h0.086c0.236 0.84 1.234 1.296 2.24 1.296zM23.588 25.362v-0.454c0-1.092 0.454-1.582 1.146-1.582 0.594 0 1.144 0.384 1.144 1.416v0.734c0 1.146-0.506 1.488-1.128 1.488-0.708 0-1.162-0.43-1.162-1.6z"></path>
</symbol>
<symbol id="icon-github" viewBox="0 0 32 32">
<path d="M16 0c-8.84 0-16 7.16-16 16 0 7.080 4.58 13.060 10.94 15.18 0.8 0.14 1.1-0.34 1.1-0.76 0-0.38-0.020-1.64-0.020-2.98-4.020 0.74-5.060-0.98-5.38-1.88-0.18-0.46-0.96-1.88-1.64-2.26-0.56-0.3-1.36-1.040-0.020-1.060 1.26-0.020 2.16 1.16 2.46 1.64 1.44 2.42 3.74 1.74 4.66 1.32 0.14-1.040 0.56-1.74 1.020-2.14-3.56-0.4-7.28-1.78-7.28-7.9 0-1.74 0.62-3.18 1.64-4.3-0.16-0.4-0.72-2.040 0.16-4.24 0 0 1.34-0.42 4.4 1.64 1.28-0.36 2.64-0.54 4-0.54s2.72 0.18 4 0.54c3.060-2.080 4.4-1.64 4.4-1.64 0.88 2.2 0.32 3.84 0.16 4.24 1.020 1.12 1.64 2.54 1.64 4.3 0 6.14-3.74 7.5-7.3 7.9 0.58 0.5 1.080 1.46 1.080 2.96 0 2.14-0.020 3.86-0.020 4.4 0 0.42 0.3 0.92 1.1 0.76 6.39-2.203 10.899-8.165 10.9-15.18v-0c0-8.84-7.16-16-16-16z"></path>
</symbol>
<symbol id="icon-linkedin" viewBox="0 0 32 32">
<path d="M0 2.292c0-1.266 1.052-2.292 2.35-2.292h27.3c1.298 0 2.35 1.026 2.35 2.292v27.416c0 1.266-1.052 2.292-2.35 2.292h-27.3c-1.298 0-2.35-1.026-2.35-2.292v-27.416zM9.886 26.788v-14.45h-4.802v14.45h4.802zM7.486 10.364c1.674 0 2.716-1.108 2.716-2.496-0.030-1.418-1.040-2.496-2.684-2.496s-2.718 1.080-2.718 2.496c0 1.388 1.042 2.496 2.654 2.496h0.032zM17.302 26.788v-8.070c0-0.432 0.032-0.864 0.16-1.172 0.346-0.862 1.136-1.756 2.464-1.756 1.738 0 2.432 1.324 2.432 3.268v7.73h4.802v-8.288c0-4.44-2.368-6.504-5.528-6.504-2.548 0-3.69 1.4-4.33 2.386v0.050h-0.032c0.037-0.060 0.047-0.076 0.058-0.093l-0.026 0.043v-2.044h-4.8c0.060 1.356 0 14.45 0 14.45h4.8z"></path>
</symbol>
<symbol id="icon-telegram" viewBox="0 0 32 32">
<path d="M32 16c0 8.837-7.163 16-16 16s-16-7.163-16-16v0c0-8.837 7.163-16 16-16s16 7.163 16 16v0zM16.574 11.812c-1.556 0.648-4.668 1.988-9.332 4.020-0.756 0.3-1.154 0.596-1.19 0.884-0.060 0.486 0.55 0.678 1.38 0.94l0.35 0.11c0.816 0.266 1.916 0.576 2.486 0.588 0.52 0.012 1.098-0.2 1.736-0.64 4.358-2.942 6.608-4.428 6.748-4.46 0.1-0.024 0.24-0.052 0.332 0.032 0.094 0.082 0.084 0.24 0.074 0.282-0.060 0.258-2.454 2.482-3.692 3.634-0.386 0.36-0.66 0.614-0.716 0.672-0.123 0.126-0.246 0.247-0.37 0.367l-0.006 0.005c-0.76 0.732-1.328 1.28 0.030 2.176 0.654 0.432 1.178 0.786 1.7 1.142 0.568 0.388 1.136 0.774 1.872 1.258 0.186 0.12 0.366 0.25 0.54 0.374 0.662 0.472 1.26 0.896 1.994 0.828 0.428-0.040 0.87-0.44 1.094-1.64 0.53-2.834 1.572-8.972 1.812-11.502 0.004-0.059 0.007-0.128 0.007-0.198 0-0.152-0.012-0.302-0.035-0.448l0.002 0.016c-0.020-0.174-0.104-0.326-0.227-0.433l-0.001-0.001c-0.167-0.117-0.374-0.186-0.598-0.186-0.008 0-0.016 0-0.024 0l0.001-0c-0.6 0.010-1.526 0.332-5.968 2.18z"></path>
</symbol>
<symbol id="icon-phone" viewBox="0 0 32 32">
<path d="M26.68 20.507c-1.64 0-3.227-0.267-4.707-0.747-0.467-0.16-0.987-0.040-1.347 0.32l-2.093 2.627c-3.773-1.8-7.307-5.2-9.187-9.107l2.6-2.213c0.36-0.373 0.467-0.893 0.32-1.36-0.493-1.48-0.747-3.067-0.747-4.707 0-0.72-0.6-1.32-1.32-1.32h-4.613c-0.72 0-1.587 0.32-1.587 1.32 0 12.387 10.307 22.68 22.68 22.68 0.947 0 1.32-0.84 1.32-1.573v-4.6c0-0.72-0.6-1.32-1.32-1.32z"></path>
</symbol>
<symbol id="icon-house" viewBox="0 0 32 32">
<path d="M17.414 3c-0.362-0.362-0.862-0.586-1.414-0.586s-1.052 0.224-1.414 0.586l-13.294 13.292c-0.181 0.181-0.293 0.431-0.293 0.708 0 0.553 0.448 1.001 1.001 1.001 0.277 0 0.527-0.112 0.708-0.293v0l1.292-1.294v10.586c0 1.657 1.343 3 3 3v0h18c1.657 0 3-1.343 3-3v0-10.586l1.292 1.294c0.181 0.181 0.431 0.293 0.708 0.293 0.553 0 1.001-0.448 1.001-1.001 0-0.276-0.112-0.527-0.293-0.708v0l-4.708-4.706v-6.586c0-0.552-0.448-1-1-1v0h-2c-0.552 0-1 0.448-1 1v0 2.586l-4.586-4.586zM26 14.414v12.586c0 0.552-0.448 1-1 1v0h-18c-0.552 0-1-0.448-1-1v0-12.586l10-10 10 10z"></path>
</symbol>
</defs>
</svg>